<!DOCTYPE svg PUBLIC "-//W3C//DTD SVG 1.1//EN" "http://www.w3.org/Graphics/SVG/1.1/DTD/svg11.dtd">

<!-- Uploaded to: SVG Repo, www.svgrepo.com, Transformed by: SVG Repo Mixer Tools -->
<svg fill="#a08857" width="800px" height="800px" viewBox="0 0 64 64" xmlns="http://www.w3.org/2000/svg" stroke="#a08857">

<g id="SVGRepo_bgCarrier" stroke-width="0"/>

<g id="SVGRepo_tracerCarrier" stroke-linecap="round" stroke-linejoin="round"/>

<g id="SVGRepo_iconCarrier"> <g id="a"/> <g id="b"> <path d="M57.0742,29.9023c-.0527-.1587-.1816-.2808-.3428-.3247-.021-.0059-1.9751-.5571-3.5459-2.2671,.9492-.9243,3.3081-3.6011,2.7681-6.9209-.0225-.1372-.1011-.2588-.2173-.3359-.1157-.0762-.2583-.1021-.394-.0693-.0187,.0042-1.8613,.4315-5.0917,.5124-.6356-5.5878-4.4085-8.3671-4.4595-8.4035-.1172-.083-.2642-.1123-.4038-.0806-.1396,.0327-.2588,.1235-.3271,.2495l-4.0877,7.5684c-.7704-.1166-1.5768-.2579-2.4733-.441-5.9166-1.1982-11.5452-1.2546-16.8201-.215l-3.739-6.9124c-.0684-.126-.1875-.2168-.3271-.2495-.1387-.0308-.2866-.0034-.4033,.0801-.1924,.1375-4.6373,3.403-4.5464,10.1675-2.6021,1.4651-5.0876,3.7947-5.5005,7.8188-.0166,.1636,.0483,.3252,.1743,.4321,.125,.106,.2944,.1426,.4546,.1011,1.2026-.3271,4.4624-.8774,6.0625,.1748-.75,1.1753-2.4971,4.6753,.4951,8.1968,.0952,.1123,.2349,.1763,.3809,.1758l.0273-.0005c.1558-.0083,.2993-.0894,.3867-.2188,.0202-.0295,1.2242-1.7546,3.6376-3.4562,2.9832,2.3387,6.3254,2.8976,8.7833,2.8976,1.467,0,2.61-.192,3.1777-.3102l.1888,.3497-3.9821,7.3728c-.3482-2.6998-2.6564-4.7941-5.4495-4.7941-3.0327,0-5.5,2.4673-5.5,5.5s2.4673,5.5,5.5,5.5c2.3119,0,4.2914-1.4357,5.1036-3.4608l4.8962-9.0655,4.899,9.0721c.8139,2.0216,2.7917,3.4541,5.1011,3.4541,3.0327,0,5.5-2.4673,5.5-5.5s-2.4673-5.5-5.5-5.5c-2.7935,0-5.1021,2.0951-5.4497,4.7956l-3.9822-7.374,.1932-.3577c1.666,.3243,8.3067,1.2278,13.189-3.6745,.6546,.057,1.2954,.0959,1.9081,.0959,4.2666,0,7.5029-1.3809,9.6362-4.1182,.1025-.1318,.1323-.3062,.0796-.4648ZM21.5,51c-2.4814,0-4.5-2.0186-4.5-4.5s2.0186-4.5,4.5-4.5,4.5,2.0186,4.5,4.5-2.0186,4.5-4.5,4.5Zm20-9c2.4814,0,4.5,2.0186,4.5,4.5s-2.0186,4.5-4.5,4.5-4.5-2.0186-4.5-4.5,2.0186-4.5,4.5-4.5ZM17.3521,13.2773l3.3001,6.1013c-1.7482,.3961-3.4584,.9088-5.1219,1.5544-.5957,.2292-1.2291,.4945-1.8702,.8043,.1147-4.6993,2.6501-7.5052,3.692-8.4601Zm2.3137,21.6237c1.6243-1.0086,3.6831-1.9386,6.2059-2.4094,.5745-.1072,1.1492-.1783,1.7243-.2473l2.6461,4.9c-1.6934,.2919-6.5138,.7537-10.5762-2.2433Zm11.834,2.4682l-2.8248-5.2307c1.8253-.143,3.6717-.0924,5.5707,.1465l-2.7459,5.0842Zm1.2561-.2213l12.896-23.877c1.3901,1.2432,5.3647,5.6431,2.9355,13.605-3.5654,11.6836-13.2427,10.7495-15.8315,10.272Z"/> </g> </g>

</svg>