<!DOCTYPE svg PUBLIC "-//W3C//DTD SVG 1.1//EN" "http://www.w3.org/Graphics/SVG/1.1/DTD/svg11.dtd">

<!-- Uploaded to: SVG Repo, www.svgrepo.com, Transformed by: SVG Repo Mixer Tools -->
<svg fill="#a08857" height="800px" width="800px" version="1.1" id="Layer_1" xmlns="http://www.w3.org/2000/svg" xmlns:xlink="http://www.w3.org/1999/xlink" viewBox="0 0 512.035 512.035" xml:space="preserve">

<g id="SVGRepo_bgCarrier" stroke-width="0"/>

<g id="SVGRepo_tracerCarrier" stroke-linecap="round" stroke-linejoin="round"/>

<g id="SVGRepo_iconCarrier"> <g> <g> <g> <path d="M510.912,411.604c-14.827-29.632-47.595-44.693-79.744-36.693l-69.141,17.28c-3.072-26.645-18.837-42.368-50.411-50.283 L126.613,300.82c0.576-4.053,1.024-7.936,1.344-11.541c0.277-3.243-0.917-6.443-3.285-8.683 c-18.283-17.323-91.392-22.912-113.365-24.235c-2.987-0.171-5.824,0.875-7.957,2.88C1.216,261.247,0,264.063,0,267.007v192 c0,5.888,4.779,10.667,10.667,10.667h64c4.608,0,8.704-2.965,10.133-7.36c0.277-0.853,1.728-5.333,3.925-12.267l152.853,50.944 c17.92,6.763,30.293,10.688,44.203,10.688c21.611,0,46.955-9.472,102.677-32.256l117.333-53.333 c2.624-1.195,4.672-3.413,5.632-6.144C512.384,417.215,512.213,414.186,510.912,411.604z M66.88,448.34H21.312V278.442 c34.283,2.709,71.296,8.597,84.736,15.125C100.395,340.287,74.816,423.274,66.88,448.34z M379.968,459.818 c-89.728,36.779-92.821,35.648-131.243,21.077L94.997,429.652c8.768-29.035,20.992-72.085,27.989-107.776l183.723,40.832 c23.616,5.888,33.131,15.211,34.432,34.688l-20.48,5.099c-7.595,1.92-15.68,2.133-23.381,0.576l-92.544-18.517 c-5.781-1.173-11.392,2.603-12.544,8.384c-1.152,5.781,2.581,11.392,8.363,12.544l92.565,18.517 c4.8,0.96,9.707,1.429,14.592,1.429c6.123,0,12.267-0.747,18.155-2.24l28.608-7.147c0.043,0,0.085,0,0.128,0l81.728-20.437 c18.709-4.608,37.632,1.877,49.387,16.149L379.968,459.818z"/> <path d="M312.32,231.743c2.005,2.069,4.779,3.264,7.68,3.264c2.901,0,5.675-1.195,7.68-3.264l100.139-104.064 C440.832,114.196,448,96.255,448,75.22c0-36.565-24.811-68.331-57.664-73.899c-20.011-3.371-40.149,2.176-55.531,15.189 c-5.888,4.992-10.837,10.795-14.784,17.259c-3.947-6.464-8.917-12.288-14.784-17.259C289.856,3.498,269.696-2.006,249.707,1.322 C216.811,6.89,192,38.655,192,77.204c0,19.051,7.168,36.992,20.181,50.475L312.32,231.743z M253.269,22.356 c2.709-0.448,5.419-0.683,8.085-0.683c10.987,0,21.44,3.84,30.101,11.136c11.349,9.6,17.877,23.893,17.877,39.168 c0,5.888,4.779,10.667,10.667,10.667s10.667-4.779,10.667-10.667c0-15.275,6.507-29.568,17.877-39.168 c10.752-9.067,24.256-12.757,38.187-10.432c22.763,3.819,39.936,26.56,39.936,54.827c0,13.312-5.184,26.304-14.208,35.669 L320,208.959l-92.459-96.064c-9.024-9.387-14.208-22.379-14.208-37.675C213.333,48.916,230.507,26.196,253.269,22.356z"/> </g> </g> </g> </g>

</svg>