<!DOCTYPE svg PUBLIC "-//W3C//DTD SVG 1.1//EN" "http://www.w3.org/Graphics/SVG/1.1/DTD/svg11.dtd">
<!-- Uploaded to: SVG Repo, www.svgrepo.com, Transformed by: SVG Repo Mixer Tools -->
<svg fill="#ffffff" width="800px" height="800px" viewBox="0 0 24 24" id="Main" xmlns="http://www.w3.org/2000/svg">
<g id="SVGRepo_bgCarrier" stroke-width="0"/>
<g id="SVGRepo_tracerCarrier" stroke-linecap="round" stroke-linejoin="round"/>
<g id="SVGRepo_iconCarrier">
<title/>
<path d="M20,5H17V4a2,2,0,0,0-2-2H9A2,2,0,0,0,7,4V5H4A2,2,0,0,0,2,7V20a2,2,0,0,0,2,2H20a2,2,0,0,0,2-2V7A2,2,0,0,0,20,5ZM9,4h6V5H9ZM7,7H20V9.79L12,12,4,9.79V7ZM4,20V11.86L12,14l8-2.18V20Z"/>
</g>
</svg>