<!DOCTYPE svg PUBLIC "-//W3C//DTD SVG 1.1//EN" "http://www.w3.org/Graphics/SVG/1.1/DTD/svg11.dtd">

<!-- Uploaded to: SVG Repo, www.svgrepo.com, Transformed by: SVG Repo Mixer Tools -->
<svg fill="#bc9f6e" version="1.1" id="Capa_1" xmlns="http://www.w3.org/2000/svg" xmlns:xlink="http://www.w3.org/1999/xlink" viewBox="0 0 489.548 489.548" xml:space="preserve" stroke="#bc9f6e">
<g id="SVGRepo_bgCarrier" stroke-width="0"/>
<g id="SVGRepo_tracerCarrier" stroke-linecap="round" stroke-linejoin="round"/>
<g id="SVGRepo_iconCarrier"> <g> <g> <path d="M344.956,140.026c2.2,14.2,13.1,32.3,31.2,38.6c7.4,2.6,15.5,2.6,22.9,0c17.7-6.4,29.1-24.4,31.3-38.6 c2.4-0.2,5.5-3.5,8.9-15.5c4.6-16.4-0.3-18.8-4.4-18.4c0.8-2.3,1.4-4.5,1.8-6.7c7-42.3-13.8-43.8-13.8-43.8s-3.5-6.6-12.6-11.7 c-6.1-3.6-14.6-6.4-25.8-5.4c-3.6,0.2-7.1,0.9-10.3,2l0,0c-4.1,1.4-7.9,3.4-11.3,5.8c-4.2,2.7-8.1,5.9-11.6,9.6 c-5.5,5.6-10.4,12.9-12.6,22c-1.8,6.8-1.4,13.9,0.1,21.5l0,0c0.4,2.2,1,4.5,1.8,6.7c-4.2-0.4-9.1,2-4.4,18.4 C339.456,136.426,342.556,139.826,344.956,140.026z"/> <path d="M57.556,140.026c2.2,14.2,13.1,32.3,31.2,38.6c7.4,2.6,15.5,2.6,22.9,0c17.7-6.4,29.1-24.4,31.3-38.6 c2.4-0.2,5.5-3.5,8.9-15.5c4.6-16.4-0.3-18.8-4.4-18.4c0.8-2.3,1.4-4.5,1.8-6.7c7-42.3-13.8-43.8-13.8-43.8s-3.5-6.6-12.6-11.7 c-6.1-3.6-14.6-6.4-25.8-5.4c-3.6,0.2-7.1,0.9-10.3,2l0,0c-4.1,1.4-7.9,3.4-11.3,5.8c-4.2,2.7-8.1,5.9-11.6,9.6 c-5.5,5.6-10.4,12.9-12.6,22c-1.8,6.8-1.4,13.9,0.1,21.5l0,0c0.4,2.2,1,4.5,1.8,6.7c-4.2-0.4-9.1,2-4.4,18.4 C52.056,136.426,55.256,139.826,57.556,140.026z"/> <path d="M197.756,170.626c2.4,15.6,14.4,35.4,34.2,42.4c8.1,2.9,17,2.9,25.1-0.1c19.5-7,31.9-26.8,34.3-42.3 c2.6-0.2,6.1-3.9,9.8-17c5.1-17.9-0.3-20.6-4.9-20.2c0.9-2.5,1.5-4.9,2-7.4c7.7-46.4-15.1-48.1-15.1-48.1s-3.8-7.3-13.8-12.8 c-6.7-4-16-7-28.3-6c-4,0.2-7.7,1-11.3,2.1l0,0c-4.5,1.5-8.7,3.8-12.4,6.4c-4.6,2.9-8.9,6.5-12.8,10.5 c-6.1,6.2-11.5,14.2-13.8,24.2c-2,7.5-1.5,15.2,0.1,23.6l0,0c0.4,2.4,1.1,4.9,2,7.4c-4.6-0.4-10,2.2-4.9,20.2 C191.756,166.726,195.156,170.426,197.756,170.626z"/> <path d="M470.156,195.626c-25.4-6.5-46-21-46-21l-16.1,50.9l-3,9.6v-0.1l-2.6,8.1l-8.5-24.1c20.9-29.1-4.2-28.8-5.6-28.8 s-26.5-0.3-5.6,28.8l-8.5,24.1l-2.6-8.1v0.1l-3-9.6l-16.1-50.9c0,0-20.6,14.5-46,21c-3.8,1-6.9,2.6-9.3,4.7 c7.6,4.6,23.2,13.2,40.9,17.7c21.8,5.5,33.5,26.3,31.4,55.6c0,0.5-0.1,1.8-0.3,3.7c6.1,0.5,12.5,0.8,19.2,0.8 c61.9,0,98.8-24,98.8-24c1.1-6.4,2.2-21.1,2.2-21.1C489.956,222.226,489.056,200.426,470.156,195.626z"/> <path d="M313.556,366.026l-13.6-2.3c-1.3-5.3-3.4-10.2-6.1-14.8l8.1-11.3c1.5-2.1,1.3-4.9-0.5-6.7l-4.8-4.8l-4.8-4.8 c-1.8-1.8-4.6-2.1-6.7-0.6l-11.3,8c-4.6-2.8-9.7-4.9-15.1-6.2l-2.2-13.5c-0.4-2.5-2.6-4.4-5.2-4.4h-6.9h-6.9 c-2.5,0-4.8,1.8-5.2,4.4l-2.4,13.8c-5.3,1.3-10.2,3.5-14.7,6.1l-11.1-8.1c-2.1-1.5-4.9-1.3-6.7,0.5l-4.8,4.8l-4.8,4.8 c-1.8,1.8-2.1,4.6-0.6,6.7l8,11.4c-2.7,4.6-4.7,9.5-6.1,14.7l-13.6,2c-2.5,0.4-4.4,2.6-4.4,5.2v6.9v6.9c0,2.5,1.8,4.8,4.4,5.2 l13.8,2.4c1.3,5.3,3.5,10.2,6.1,14.7l-8,11.2c-1.5,2.1-1.3,4.9,0.5,6.7l4.8,4.8l4.8,4.8c1.8,1.8,4.6,2.1,6.7,0.6l11.4-8 c4.4,2.6,9.3,4.7,14.4,6l2.2,13.7c0.4,2.5,2.6,4.4,5.2,4.4h6.9h6.9c2.5,0,4.8-1.8,5.2-4.4l2.3-13.6c5.3-1.3,10.2-3.4,14.8-6.1 l11.3,8.1c2.1,1.5,4.9,1.3,6.7-0.5l4.8-4.8l4.8-4.8c1.8-1.8,2.1-4.6,0.6-6.7l-8-11.3c2.7-4.6,4.8-9.5,6.2-14.7l13.7-2.2 c2.5-0.4,4.4-2.6,4.4-5.2v-6.9v-6.9C317.856,368.626,316.056,366.526,313.556,366.026z M252.456,412.326 c-19.1,4.4-38.1-7.5-42.5-26.6s7.5-38.1,26.6-42.5s38.1,7.5,42.5,26.6S271.556,407.926,252.456,412.326z"/> <path d="M151.256,218.026c17.6-4.5,33.2-13.1,40.9-17.7c-2.5-2.1-5.5-3.8-9.3-4.7c-25.4-6.5-46-21-46-21l-16.1,50.9l-3,9.6v-0.1 l-2.6,8.1l-8.5-24.1c20.9-29.1-4.2-28.8-5.6-28.8s-26.5-0.3-5.6,28.8l-8.5,24.1l-2.6-8.1v0.1l-3-9.6l-16.1-50.9 c0,0-20.6,14.5-46,21c-18.9,4.8-19.8,26.6-19.1,37.5c0,0,1.1,14.7,2.2,21.1c0,0,36.9,24,98.8,24c6.7,0,13.1-0.3,19.2-0.8 c-0.2-1.9-0.3-3.2-0.3-3.7C117.756,244.326,129.556,223.526,151.256,218.026z"/> <path d="M334.356,231.626c-27.8-7.1-50.5-23-50.5-23l-17.6,55.8l-3.3,10.5l-0.1-0.1l-2.9,8.9l-9.3-26.4 c22.9-31.9-4.6-31.6-6.2-31.6c-1.5,0-29-0.4-6.2,31.6l-9.3,26.4l-2.9-8.9l-0.1,0.1l-3.3-10.5l-17.6-55.8c0,0-22.6,15.9-50.5,23 c-20.7,5.3-21.8,29.2-20.9,41.1c0,0,1.2,16.1,2.4,23.2c0,0,17.1,11.1,47.7,18.9l3.7-3.6c3.6-3.6,8.4-5.6,13.5-5.6 c4,0,7.9,1.2,11.2,3.6l0.2,0.1l4.2,3.1c0.3-0.1,0.6-0.3,1-0.4l1-5.5c1.6-9.2,9.6-16,19-16l13.8,0.1c9.4,0,17.4,6.8,18.9,16.1 l0.8,5.2c0.5,0.2,1,0.4,1.5,0.6l4.4-3.1c3.3-2.3,7.1-3.5,11.1-3.5c5.2,0,10,2,13.6,5.7l3.4,3.4c30.6-7.8,47.8-18.9,47.8-18.9 c1.2-7.1,2.4-23.2,2.4-23.2C356.156,260.826,355.156,236.926,334.356,231.626z"/> </g> </g> </g>
</svg>