<!DOCTYPE svg PUBLIC "-//W3C//DTD SVG 1.1//EN" "http://www.w3.org/Graphics/SVG/1.1/DTD/svg11.dtd">

<!-- Uploaded to: SVG Repo, www.svgrepo.com, Transformed by: SVG Repo Mixer Tools -->
<svg fill="#a08857" height="800px" width="800px" version="1.1" id="Layer_1" xmlns="http://www.w3.org/2000/svg" xmlns:xlink="http://www.w3.org/1999/xlink" viewBox="0 0 512.002 512.002" xml:space="preserve" stroke="#ffffff">

<g id="SVGRepo_bgCarrier" stroke-width="0"/>

<g id="SVGRepo_tracerCarrier" stroke-linecap="round" stroke-linejoin="round"/>

<g id="SVGRepo_iconCarrier"> <g> <g> <path d="M450.657,469.796c-8.223-63.271-46.565-117.942-102.05-147.591c7.266-9.256,13.413-19.431,18.351-30.297 c11.293-0.855,20.196-10.268,20.196-21.78c0-6.919-3.223-13.076-8.239-17.082c1.265-7.198,2.076-14.544,2.409-21.99 c1.294-1.444,2.354-3.124,3.094-4.995c0.51-1.292,12.48-32.154,10.548-76.382c-2.05-46.948-22.168-82.247-54.501-96.858 C333.819,22.791,302.77,0,265.583,0c-32.214,0-60.663,17.153-71.53,42.406c-44.935,31.486-70.28,68.824-69.896,125.895 c0.137,20.241,3.82,37.341,6.536,47.253c-0.116,2.584-0.193,5.167-0.193,7.71c0,10.231,0.902,20.307,2.645,30.106 c-4.784,4.011-7.831,10.027-7.831,16.758c0,11.351,8.651,20.678,19.72,21.757c4.94,10.875,11.091,21.059,18.362,30.321 c-55.484,29.649-93.828,84.318-102.05,147.591c-2.908,22.377,14.542,42.205,37.098,42.205H413.56 C436.146,512,453.554,492.084,450.657,469.796z M161.718,202.241c-1.994-8.362-4.215-20.887-4.207-35.19 c0.029-46.311,21.145-74.601,59.506-99.926c3.231-2.134,5.62-5.325,6.756-9.027c4.398-14.336,21.98-24.739,41.808-24.739 c23.167,0,42.748,14.356,42.836,31.376c0,0.053,0,0.107,0,0.159c0,7.424,4.906,13.953,12.036,16.02 c34.844,10.1,40.409,52.472,41.184,70.219c0.954,21.848-2.118,39.81-4.78,50.82c-22.989-5.491-46.186-29.748-57.569-49.486 c-2.968-5.172-8.472-8.367-14.436-8.378c-0.011,0-0.021,0-0.031,0c-5.937,0-11.447,3.159-14.436,8.323 C249.79,187.995,202.765,200.927,161.718,202.241z M256.002,336.385c-51.181,0-87.068-49.349-91.606-100.866 c43.314-1.78,90.556-14.925,120.048-46.446c16.462,20.267,38.235,38.456,63.286,44.963 C343.695,286.246,307.545,336.385,256.002,336.385z M256.001,414.702c-30.001,0-53.348-26.599-49.157-56.528 c14.964,7.411,31.66,11.571,49.157,11.571c16.955,0,33.695-3.913,49.156-11.57C309.352,388.131,285.976,414.702,256.001,414.702z M413.559,478.641H98.444c-2.446,0-4.331-2.127-4.016-4.546c6.55-50.395,36.135-94.224,79.231-119.426 c-0.435,3.44-0.656,6.912-0.656,10.393c0,45.766,37.233,82.999,82.999,82.999c45.766,0,82.999-37.233,82.999-82.999 c0-3.482-0.221-6.953-0.656-10.394c43.097,25.201,72.683,69.03,79.233,119.426C417.881,476.445,416.013,478.641,413.559,478.641z"/> </g> </g> </g>

</svg>